{"title":"True Lies 1994 1080p.BluRay.5.1.x264 . NVEE","uid":10281902,"size":3168089730,"categoryP":"video","categoryS":"hd___movies","magnet":"?xt=urn:btih:0efdc77d9e1cc3d6021817c968e096e6312e26ff&amp;dn=True+Lies+1994+1080p.BluRay.5.1.x264+.+NVEE&amp;tr=udp%3A%2F%2Ftracker.openbittorrent.com%3A80&amp;tr=udp%3A%2F%2Fopen.demonii.com%3A1337&amp;tr=udp%3A%2F%2Ftracker.coppersurfer.tk%3A6969&amp;tr=udp%3A%2F%2Fexodus.desync.com%3A6969","seeders":5,"leechers":3,"uploader":".NVEE","files":-1,"time":1401721234,"description":"\n\nQuick note :\nPlease seed to a Share Ratio of at least 1.1\nIf you require a torrent release I have posted in the past, not seeding,...\nPlease do not hesitate to inform me in any means you find fit to do so.\nTorrent requests also &quot;Always Welcome.&quot;\n\n\nFULL_INFOs\n\n99.99% --- SYNCED GUARANTEED \n\n&quot;Totally scrutinized / analyzed to be a verified torrent.&quot;\n___________________________________________\n\nSource : Blu-ray ~ 1080p\n\n\n\nSpoken Language : English\n\nAudio : 6 ~ Channels Only\n\n\nSubs Info :\n\nEnglish &amp; Dutch ~ UTF-8 EMBEDDED.\n\nText #1\nID : 3\nFormat : Timed Text\nCodec ID : tx3g\nDuration : 2h 17mn\nBit rate mode : Variable\nBit rate : 48 bps\nStream size : 48.3 KiB (0%)\nTitle : English\nLanguage : English\nEncoded date : UTC 2014-05-27 15:48:24\nTagged date : UTC 2014-05-27 15:48:24\n\nText #2\nID : 4\nFormat : Timed Text\nCodec ID : tx3g\nDuration : 2h 17mn\nBit rate mode : Variable\nBit rate : 35 bps\nStream size : 35.1 KiB (0%)\nTitle : Nederlands\nLanguage : Dutch\nEncoded date : UTC 2014-05-27 15:48:24\nTagged date : UTC 2014-05-27 15:48:24\n\nAll .srt UTF-8 &amp; .idx subs can be turned On/Off\n_____________________________________\n---------------------------------------------------------------------------------\n\nGeneral Metadata\n\nComplete name : True Lies 1994.816p.BluRay.5.1.x264 . NVEE.mp4\nFormat : MPEG-4\nFormat profile : Base Media\nCodec ID : isom\nFile size : 2.95 GiB\nDuration : 2h 20mn\nOverall bit rate mode : Variable\nOverall bit rate : 2 998 Kbps\nEncoded date : UTC 2014-05-27 15:33:31\nTagged date : UTC 2014-05-27 15:33:31\n\n\nVideo\n\nID : 1\nFormat : AVC\nFormat/Info : Advanced Video Codec\nFormat profile : &lt;a class=&quot;__cf_email__&quot; href=&quot;/cdn-cgi/l/email-protection&quot; data-cfemail=&quot;1058797778505c243e21&quot;&gt;[email&amp;#160;protected]&lt;/a&gt;&lt;script cf-hash='f9e31' type=&quot;text/javascript&quot;&gt;\n/* &lt;![CDATA[ */!function(){try{var t=&quot;currentScript&quot;in document?document.currentScript:function(){for(var t=document.getElementsByTagName(&quot;script&quot;),e=t.length;e--;)if(t[e].getAttribute(&quot;cf-hash&quot;))return t[e]}();if(t&amp;&amp;t.previousSibling){var e,r,n,i,c=t.previousSibling,a=c.getAttribute(&quot;data-cfemail&quot;);if(a){for(e=&quot;&quot;,r=parseInt(a.substr(0,2),16),n=2;a.length-n;n+=2)i=parseInt(a.substr(n,2),16)^r,e+=String.fromCharCode(i);e=document.createTextNode(e),c.parentNode.replaceChild(e,c)}}}catch(u){}}();/* ]]&gt; */&lt;/script&gt;\nFormat settings, CABAC : Yes\nFormat settings, ReFrames : 3 frames\nCodec ID : avc1\nCodec ID/Info : Advanced Video Coding\nDuration : 2h 20mn\nBit rate : 2 419 Kbps\nMaximum bit rate : 23.1 Mbps\nWidth : 1 920 pixels\nHeight : 816 pixels\nDisplay aspect ratio : 2.35:1\nFrame rate mode : Constant\nFrame rate : 23.976 fps\nColor space : YUV\nChroma subsampling : 4:2:0\nBit depth : 8 bits\nScan type : Progressive\nBits/(Pixel*Frame) : 0.064\nStream size : 2.38 GiB (81%)\nWriting library : x264 core 142 r2431 ac76440\nEncoded from Physical Blu-ray / Region A\n\n\nAudio\n\nID : 2\nFormat : AC-3\nFormat/Info : Audio Coding 3\nMode extension : CM (complete main)\nFormat settings, Endianness : Big\nCodec ID : ac-3\nDuration : 2h 20mn\nSource duration : 2h 20mn\nBit rate mode : Constant\nBit rate : 576 Kbps\nChannel(s) : 6 channels\nChannel positions : Front: L C R, Side: L R, LFE\nSampling rate : 48.0 KHz\nBit depth : 16 bits\nCompression mode : Lossy\nStream size : 581 MiB (19%)\nSource stream size : 581 MiB (19%)\nLanguage : English\nEncoded date : UTC 2014-05-27 15:47:14\nTagged date : UTC 2014-05-27 15:48:24\nEncoded from Physical Blu-ray 6 Channel audio &quot;Always&quot;.\n\n\nEnj0y !\n","torrent":{"xt":"urn:btih:0efdc77d9e1cc3d6021817c968e096e6312e26ff","amp;dn":"True+Lies+1994+1080p.BluRay.5.1.x264+.+NVEE","amp;tr":["udp%3A%2F%2Ftracker.openbittorrent.com%3A80","udp%3A%2F%2Fopen.demonii.com%3A1337","udp%3A%2F%2Ftracker.coppersurfer.tk%3A6969","udp%3A%2F%2Fexodus.desync.com%3A6969"],"infoHash":"0efdc77d9e1cc3d6021817c968e096e6312e26ff","infoHashBuffer":{"type":"Buffer","data":[14,253,199,125,158,28,195,214,2,24,23,201,104,224,150,230,49,46,38,255]},"announce":[],"urlList":[]}}